<svg xmlns="http://www.w3.org/2000/svg" width="1280" height="720" viewBox="0 0 1280 720" font-family="'Segoe UI', system-ui, -apple-system, Helvetica, Arial, sans-serif"><defs>
  <linearGradient id="bg" x1="0" y1="0" x2="0" y2="1">
    <stop offset="0" stop-color="#0a0e16"/><stop offset="1" stop-color="#0d1117"/>
  </linearGradient>
  <linearGradient id="accent" x1="0" y1="0" x2="1" y2="0">
    <stop offset="0" stop-color="#2dd4bf"/><stop offset="0.5" stop-color="#4493f8"/><stop offset="1" stop-color="#2dd4bf"/>
  </linearGradient>
  <pattern id="grid" width="32" height="32" patternUnits="userSpaceOnUse">
    <path d="M 32 0 L 0 0 0 32" fill="none" stroke="#161d27" stroke-width="1"/>
  </pattern>
  <filter id="soft" x="-20%" y="-20%" width="140%" height="140%">
    <feDropShadow dx="0" dy="4" stdDeviation="8" flood-color="#000000" flood-opacity="0.45"/>
  </filter>
  <filter id="glow" x="-60%" y="-60%" width="220%" height="220%">
    <feDropShadow dx="0" dy="0" stdDeviation="6" flood-color="#2dd4bf" flood-opacity="0.5"/>
  </filter>
</defs><rect x="0" y="0" width="1280" height="720" rx="0" ry="0" fill="url(#bg)"/><rect x="0" y="0" width="1280" height="720" fill="url(#grid)" opacity="0.5"/><rect x="0" y="0" width="1280" height="4" fill="url(#accent)"/><text x="1252" y="698" font-size="12.5" fill="#69788b" font-family="'SF Mono','JetBrains Mono','Fira Code',Menlo,Consolas,'Liberation Mono',monospace" font-weight="400" text-anchor="end">github.com/TAIPANBOX/wardryx</text><text x="40" y="56" font-size="34" fill="#e6edf3" font-family="'SF Mono','JetBrains Mono','Fira Code',Menlo,Consolas,'Liberation Mono',monospace" font-weight="700" text-anchor="start">wardryx</text><text x="188" y="56" font-size="22" fill="#9aa7b8" font-family="'Segoe UI', system-ui, -apple-system, Helvetica, Arial, sans-serif" font-weight="600" text-anchor="start">- Policy Decision Point</text><text x="40" y="84" font-size="15" fill="#9aa7b8" font-family="'Segoe UI', system-ui, -apple-system, Helvetica, Arial, sans-serif" font-weight="400" text-anchor="start">Agent → TokenFuse (PEP) → POST /v1/decide → Wardryx decides allow / deny / hold; a hold resolves out-of-band via a signed approval token.</text><line x1="40" y1="100" x2="1240" y2="100" stroke="#222b38" stroke-width="1"/><text x="42" y="122" font-size="12" fill="#2dd4bf" font-family="'SF Mono','JetBrains Mono','Fira Code',Menlo,Consolas,'Liberation Mono',monospace" font-weight="700" text-anchor="start" letter-spacing="1.5">01 · CALLER</text><text x="322" y="122" font-size="12" fill="#2dd4bf" font-family="'SF Mono','JetBrains Mono','Fira Code',Menlo,Consolas,'Liberation Mono',monospace" font-weight="700" text-anchor="start" letter-spacing="1.5">02 · POLICY DECISION POINT</text><text x="802" y="122" font-size="12" fill="#2dd4bf" font-family="'SF Mono','JetBrains Mono','Fira Code',Menlo,Consolas,'Liberation Mono',monospace" font-weight="700" text-anchor="start" letter-spacing="1.5">03 · OUTCOME</text><rect x="40" y="134" width="260" height="302" rx="14" ry="14" fill="#141a23" stroke="#283341" stroke-width="1" filter="soft"/><rect x="320" y="134" width="440" height="302" rx="14" ry="14" fill="#141a23" stroke="#283341" stroke-width="1" filter="soft"/><rect x="800" y="134" width="440" height="302" rx="14" ry="14" fill="#141a23" stroke="#283341" stroke-width="1" filter="soft"/><rect x="58" y="156" width="224" height="85" rx="12" ry="12" fill="#1b2331" stroke="#283341" stroke-width="1" filter="soft"/><rect x="58" y="156" width="6" height="85" rx="3" ry="3" fill="#4493f8" stroke="#283341" stroke-width="1"/><text x="82" y="186" font-size="15" fill="#e6edf3" font-family="'Segoe UI', system-ui, -apple-system, Helvetica, Arial, sans-serif" font-weight="700" text-anchor="start">AI agent</text><line x1="82" y1="200" x2="262" y2="200" stroke="#222b38" stroke-width="1"/><text x="82" y="224" font-size="11.5" fill="#9aa7b8" font-family="'Segoe UI', system-ui, -apple-system, Helvetica, Arial, sans-serif" font-weight="400" text-anchor="start">any framework, any tool call</text><line x1="170" y1="241" x2="170" y2="259" stroke="#4493f8" stroke-width="2" opacity="1"/><path d="M 170.0 259.0 L 166.5 250.7 M 170.0 259.0 L 173.5 250.7" fill="none" stroke="#4493f8" stroke-width="2" stroke-linecap="round" opacity="1"/><rect x="58" y="261" width="224" height="150" rx="12" ry="12" fill="#1b2331" stroke="#283341" stroke-width="1" filter="soft"/><rect x="58" y="261" width="6" height="150" rx="3" ry="3" fill="#4493f8" stroke="#283341" stroke-width="1"/><text x="82" y="291" font-size="16" fill="#e6edf3" font-family="'Segoe UI', system-ui, -apple-system, Helvetica, Arial, sans-serif" font-weight="700" text-anchor="start">TokenFuse</text><text x="82" y="311" font-size="10" fill="#4493f8" font-family="'SF Mono','JetBrains Mono','Fira Code',Menlo,Consolas,'Liberation Mono',monospace" font-weight="700" text-anchor="start" letter-spacing="1.5">PEP · ENFORCEMENT POINT</text><line x1="82" y1="325" x2="262" y2="325" stroke="#222b38" stroke-width="1"/><text x="82" y="349" font-size="12.5" fill="#e6edf3" font-family="'Segoe UI', system-ui, -apple-system, Helvetica, Arial, sans-serif" font-weight="600" text-anchor="start">spend + enforcement proxy</text><text x="82" y="369" font-size="11.5" fill="#9aa7b8" font-family="'Segoe UI', system-ui, -apple-system, Helvetica, Arial, sans-serif" font-weight="400" text-anchor="start">calls /v1/decide per request</text><text x="82" y="386" font-size="11.5" fill="#9aa7b8" font-family="'Segoe UI', system-ui, -apple-system, Helvetica, Arial, sans-serif" font-weight="400" text-anchor="start">before every LLM / tool call</text><polygon points="562.5,188.0 540.0,201.0 517.5,188.0 517.5,162.0 540.0,149.0 562.5,162.0" fill="#1a212c" stroke="#4493f8" stroke-width="1.8" filter="soft"/><text x="540" y="167" font-size="12" fill="#e6edf3" font-family="'Segoe UI', system-ui, -apple-system, Helvetica, Arial, sans-serif" font-weight="700" text-anchor="middle">agent-event</text><text x="540" y="183" font-size="12" fill="#e6edf3" font-family="'Segoe UI', system-ui, -apple-system, Helvetica, Arial, sans-serif" font-weight="700" text-anchor="middle">bus</text><text x="540" y="213" font-size="9.5" fill="#69788b" font-family="'SF Mono','JetBrains Mono','Fira Code',Menlo,Consolas,'Liberation Mono',monospace" font-weight="600" text-anchor="middle">policy_allow · policy_deny · approval_*</text><line x1="540" y1="217" x2="540" y2="259" stroke="#4493f8" stroke-width="2.4" opacity="0.85"/><path d="M 540.0 259.0 L 536.5 250.7 M 540.0 259.0 L 543.5 250.7" fill="none" stroke="#4493f8" stroke-width="2.4" stroke-linecap="round" opacity="0.85"/><text x="562" y="240" font-size="9.5" fill="#4493f8" font-family="'SF Mono','JetBrains Mono','Fira Code',Menlo,Consolas,'Liberation Mono',monospace" font-weight="600" text-anchor="start">events</text><rect x="410.0" y="261.0" width="260" height="150" rx="16" ry="16" fill="#1a212c" stroke="#2dd4bf" stroke-width="1.8" filter="glow"/><text x="540" y="322" font-size="22" fill="#2dd4bf" font-family="'SF Mono','JetBrains Mono','Fira Code',Menlo,Consolas,'Liberation Mono',monospace" font-weight="700" text-anchor="middle">wardryx</text><text x="540" y="344" font-size="13.5" fill="#e6edf3" font-family="'Segoe UI', system-ui, -apple-system, Helvetica, Arial, sans-serif" font-weight="600" text-anchor="middle">policy PDP</text><text x="540" y="364" font-size="10.5" fill="#69788b" font-family="'SF Mono','JetBrains Mono','Fira Code',Menlo,Consolas,'Liberation Mono',monospace" font-weight="400" text-anchor="middle">Engine.Decide · deterministic · no LLM</text><line x1="282" y1="300" x2="408" y2="300" stroke="#2dd4bf" stroke-width="2.4" opacity="1"/><path d="M 408.0 300.0 L 399.7 303.5 M 408.0 300.0 L 399.7 296.5" fill="none" stroke="#2dd4bf" stroke-width="2.4" stroke-linecap="round" opacity="1"/><text x="345" y="290" font-size="11" fill="#2dd4bf" font-family="'SF Mono','JetBrains Mono','Fira Code',Menlo,Consolas,'Liberation Mono',monospace" font-weight="600" text-anchor="middle">POST /v1/decide</text><line x1="408" y1="350" x2="282" y2="350" stroke="#9aa7b8" stroke-width="1.8" opacity="0.8" stroke-dasharray="5,4"/><path d="M 282.0 350.0 L 290.3 346.5 M 282.0 350.0 L 290.3 353.5" fill="none" stroke="#9aa7b8" stroke-width="1.8" stroke-linecap="round" opacity="0.8"/><text x="366" y="382" font-size="11" fill="#9aa7b8" font-family="'SF Mono','JetBrains Mono','Fira Code',Menlo,Consolas,'Liberation Mono',monospace" font-weight="600" text-anchor="middle">allow / deny / hold</text><circle cx="340" cy="365" r="7" fill="#1a212c" stroke="#3fb950" stroke-width="2"/><circle cx="363" cy="365" r="7" fill="#1a212c" stroke="#ff6b63" stroke-width="2"/><circle cx="386" cy="365" r="7" fill="#1a212c" stroke="#e3b341" stroke-width="2"/><rect x="820" y="156" width="400" height="76" rx="12" ry="12" fill="#1b2331" stroke="#283341" stroke-width="1" filter="soft"/><rect x="820" y="156" width="6" height="76" rx="3" ry="3" fill="#3fb950" stroke="#283341" stroke-width="1"/><text x="844" y="186" font-size="16" fill="#e6edf3" font-family="'Segoe UI', system-ui, -apple-system, Helvetica, Arial, sans-serif" font-weight="700" text-anchor="start">allow</text><text x="844" y="206" font-size="10" fill="#3fb950" font-family="'SF Mono','JetBrains Mono','Fira Code',Menlo,Consolas,'Liberation Mono',monospace" font-weight="700" text-anchor="start" letter-spacing="1.5">FORWARD TO LLM / TOOL</text><line x1="844" y1="220" x2="1200" y2="220" stroke="#222b38" stroke-width="1"/><rect x="820" y="252" width="400" height="76" rx="12" ry="12" fill="#1b2331" stroke="#283341" stroke-width="1" filter="soft"/><rect x="820" y="252" width="6" height="76" rx="3" ry="3" fill="#ff6b63" stroke="#283341" stroke-width="1"/><text x="844" y="282" font-size="16" fill="#e6edf3" font-family="'Segoe UI', system-ui, -apple-system, Helvetica, Arial, sans-serif" font-weight="700" text-anchor="start">deny</text><text x="844" y="302" font-size="10" fill="#ff6b63" font-family="'SF Mono','JetBrains Mono','Fira Code',Menlo,Consolas,'Liberation Mono',monospace" font-weight="700" text-anchor="start" letter-spacing="1.5">HTTP 403</text><line x1="844" y1="316" x2="1200" y2="316" stroke="#222b38" stroke-width="1"/><rect x="820" y="348" width="400" height="76" rx="12" ry="12" fill="#1b2331" stroke="#283341" stroke-width="1" filter="soft"/><rect x="820" y="348" width="6" height="76" rx="3" ry="3" fill="#e3b341" stroke="#283341" stroke-width="1"/><text x="844" y="378" font-size="16" fill="#e6edf3" font-family="'Segoe UI', system-ui, -apple-system, Helvetica, Arial, sans-serif" font-weight="700" text-anchor="start">hold</text><text x="844" y="398" font-size="10" fill="#e3b341" font-family="'SF Mono','JetBrains Mono','Fira Code',Menlo,Consolas,'Liberation Mono',monospace" font-weight="700" text-anchor="start" letter-spacing="1.5">HTTP 403 + approval_id</text><line x1="844" y1="412" x2="1200" y2="412" stroke="#222b38" stroke-width="1"/><path d="M 670 300 C 745.0 300, 745.0 194, 814 194" fill="none" stroke="#3fb950" stroke-width="1.8" opacity="0.7"/><path d="M 820 194 l -9 -5 l 0 10 z" fill="#3fb950" opacity="0.8999999999999999"/><path d="M 670 336 C 745.0 336, 745.0 290, 814 290" fill="none" stroke="#ff6b63" stroke-width="1.8" opacity="0.6"/><path d="M 820 290 l -9 -5 l 0 10 z" fill="#ff6b63" opacity="0.8"/><path d="M 670 372 C 745.0 372, 745.0 386, 814 386" fill="none" stroke="#e3b341" stroke-width="1.8" opacity="0.6"/><path d="M 820 386 l -9 -5 l 0 10 z" fill="#e3b341" opacity="0.8"/><text x="42" y="452" font-size="12" fill="#e3b341" font-family="'SF Mono','JetBrains Mono','Fira Code',Menlo,Consolas,'Liberation Mono',monospace" font-weight="700" text-anchor="start" letter-spacing="1.5">04 · STATELESS HOLD → APPROVE → RESUBMIT</text><rect x="40" y="464" width="1200" height="170" rx="14" ry="14" fill="#141a23" stroke="#283341" stroke-width="1" filter="soft"/><rect x="65" y="490" width="210" height="110" rx="10" ry="10" fill="#1b2331" stroke="#222b38" stroke-width="1"/><rect x="65" y="490" width="4" height="110" rx="2" ry="2" fill="#e3b341" stroke="#283341" stroke-width="1"/><text x="83" y="541.0" font-size="14" fill="#e6edf3" font-family="'Segoe UI', system-ui, -apple-system, Helvetica, Arial, sans-serif" font-weight="600" text-anchor="start">1 · hold returned</text><text x="83" y="560.0" font-size="11.5" fill="#69788b" font-family="'Segoe UI', system-ui, -apple-system, Helvetica, Arial, sans-serif" font-weight="400" text-anchor="start">approval_id issued; nothing blocks</text><line x1="275" y1="545" x2="300" y2="545" stroke="#69788b" stroke-width="2" opacity="1"/><path d="M 300.0 545.0 L 291.7 548.5 M 300.0 545.0 L 291.7 541.5" fill="none" stroke="#69788b" stroke-width="2" stroke-linecap="round" opacity="1"/><rect x="300" y="490" width="210" height="110" rx="10" ry="10" fill="#1b2331" stroke="#222b38" stroke-width="1"/><rect x="300" y="490" width="4" height="110" rx="2" ry="2" fill="#4493f8" stroke="#283341" stroke-width="1"/><text x="318" y="541.0" font-size="14" fill="#e6edf3" font-family="'Segoe UI', system-ui, -apple-system, Helvetica, Arial, sans-serif" font-weight="600" text-anchor="start">2 · admin decides</text><text x="318" y="560.0" font-size="11.5" fill="#69788b" font-family="'Segoe UI', system-ui, -apple-system, Helvetica, Arial, sans-serif" font-weight="400" text-anchor="start">POST /v1/approvals/{id}/decide</text><line x1="510" y1="545" x2="535" y2="545" stroke="#69788b" stroke-width="2" opacity="1"/><path d="M 535.0 545.0 L 526.7 548.5 M 535.0 545.0 L 526.7 541.5" fill="none" stroke="#69788b" stroke-width="2" stroke-linecap="round" opacity="1"/><rect x="535" y="490" width="210" height="110" rx="10" ry="10" fill="#1b2331" stroke="#222b38" stroke-width="1"/><rect x="535" y="490" width="4" height="110" rx="2" ry="2" fill="#2dd4bf" stroke="#283341" stroke-width="1"/><text x="553" y="541.0" font-size="14" fill="#e6edf3" font-family="'Segoe UI', system-ui, -apple-system, Helvetica, Arial, sans-serif" font-weight="600" text-anchor="start">3 · token minted</text><text x="553" y="560.0" font-size="11.5" fill="#69788b" font-family="'Segoe UI', system-ui, -apple-system, Helvetica, Arial, sans-serif" font-weight="400" text-anchor="start">HMAC-SHA256, scoped to the run</text><line x1="745" y1="545" x2="770" y2="545" stroke="#69788b" stroke-width="2" opacity="1"/><path d="M 770.0 545.0 L 761.7 548.5 M 770.0 545.0 L 761.7 541.5" fill="none" stroke="#69788b" stroke-width="2" stroke-linecap="round" opacity="1"/><rect x="770" y="490" width="210" height="110" rx="10" ry="10" fill="#1b2331" stroke="#222b38" stroke-width="1"/><rect x="770" y="490" width="4" height="110" rx="2" ry="2" fill="#4493f8" stroke="#283341" stroke-width="1"/><text x="788" y="541.0" font-size="14" fill="#e6edf3" font-family="'Segoe UI', system-ui, -apple-system, Helvetica, Arial, sans-serif" font-weight="600" text-anchor="start">4 · agent resubmits</text><text x="788" y="560.0" font-size="11.5" fill="#69788b" font-family="'Segoe UI', system-ui, -apple-system, Helvetica, Arial, sans-serif" font-weight="400" text-anchor="start">x-fuse-approval-token header</text><line x1="980" y1="545" x2="1005" y2="545" stroke="#69788b" stroke-width="2" opacity="1"/><path d="M 1005.0 545.0 L 996.7 548.5 M 1005.0 545.0 L 996.7 541.5" fill="none" stroke="#69788b" stroke-width="2" stroke-linecap="round" opacity="1"/><rect x="1005" y="490" width="210" height="110" rx="10" ry="10" fill="#1b2331" stroke="#222b38" stroke-width="1"/><rect x="1005" y="490" width="4" height="110" rx="2" ry="2" fill="#3fb950" stroke="#283341" stroke-width="1"/><text x="1023" y="541.0" font-size="14" fill="#e6edf3" font-family="'Segoe UI', system-ui, -apple-system, Helvetica, Arial, sans-serif" font-weight="600" text-anchor="start">5 · decision: allow</text><text x="1023" y="560.0" font-size="11.5" fill="#69788b" font-family="'Segoe UI', system-ui, -apple-system, Helvetica, Arial, sans-serif" font-weight="400" text-anchor="start">or a fresh hold if single-use is spent</text><path d="M 1185 490 C 1185 451.0, 540 451.0, 540 406" fill="none" stroke="#2dd4bf" stroke-width="1.8" opacity="0.55"/><path d="M 540 412 l -9 -5 l 0 10 z" fill="#2dd4bf" opacity="0.75"/><text x="1135" y="455" font-size="10" fill="#2dd4bf" font-family="'SF Mono','JetBrains Mono','Fira Code',Menlo,Consolas,'Liberation Mono',monospace" font-weight="600" text-anchor="middle">same action, token set</text></svg>